{"title":"Homework (1982) Joan Collins DVDRip XviD-pong","uid":15601394,"size":724820956,"categoryP":"video","categoryS":"movies","magnet":"?xt=urn:btih:37e79fe2f3c42a1978585631f31d2bf17136f5c3&amp;dn=Homework+%281982%29+Joan+Collins+DVDRip+XviD-pong&amp;tr=udp%3A%2F%2Ftracker.leechers-paradise.org%3A6969&amp;tr=udp%3A%2F%2Fzer0day.ch%3A1337&amp;tr=udp%3A%2F%2Fopen.demonii.com%3A1337&amp;tr=udp%3A%2F%2Ftracker.coppersurfer.tk%3A6969&amp;tr=udp%3A%2F%2Fexodus.desync.com%3A6969","seeders":1,"leechers":0,"uploader":"Pongydog","files":1,"time":1471654821,"description":"http://www.imdb.com/title/tt0084084\r\n\r\n\r\nA good-looking but virginal &quot;rockstar&quot; teen (Morgan) tries to score with some of the local high school girls. But a classmate's mom (Collins) decides to make a man out of him. \r\n\r\nDirector: James Beshears  \r\n\r\nWriters: Maurice Peterson,  Don Safran  \r\n\r\nStars: Joan Collins,  Michael Morgan,  Shell Kepler, Lee Purcell \r\n\r\n\r\n\r\nGeneral\r\nComplete name                            : C:Usersuser1VideosHomework (1982) Joan Collins DVDRip XviD-pong.avi\r\nFormat                                   : AVI\r\nFormat/Info                              : Audio Video Interleave\r\nFile size                                : 691 MiB\r\nDuration                                 : 1h 29mn\r\nOverall bit rate                         : 1 079 Kbps\r\nWriting application                      : Lavf57.36.100\r\n\r\nVideo\r\nID                                       : 0\r\nFormat                                   : MPEG-4 Visual\r\nFormat profile                           :   \r\nFormat settings, BVOP                    : No\r\nFormat settings, QPel                    : No\r\nFormat settings, GMC                     : No warppoints\r\nFormat settings, Matrix                  : Default (H.263)\r\nCodec ID                                 : XVID\r\nCodec ID/Hint                            : XviD\r\nDuration                                 : 1h 29mn\r\nBit rate                                 : 937 Kbps\r\nWidth                                    : 624 pixels\r\nHeight                                   : 352 pixels\r\nDisplay aspect ratio                     : 16:9\r\nOriginal display aspect ratio            : 16:9\r\nFrame rate                               : 29.970 (30000/1001) fps\r\nColor space                              : YUV\r\nChroma subsampling                       : 4:2:0\r\nBit depth                                : 8 bits\r\nScan type                                : Progressive\r\nCompression mode                         : Lossy\r\nBits/(Pixel*Frame)                       : 0.142\r\nStream size                              : 600 MiB (87%)\r\nWriting library                          : XviD 67\r\n\r\nAudio\r\nID                                       : 1\r\nFormat                                   : MPEG Audio\r\nFormat version                           : Version 1\r\nFormat profile                           : Layer 3\r\nCodec ID                                 : 55\r\nCodec ID/Hint                            : MP3\r\nDuration                                 : 1h 29mn\r\nBit rate mode                            : Constant\r\nBit rate                                 : 128 Kbps\r\nChannel(s)                               : 2 channels\r\nSampling rate                            : 48.0 KHz\r\nCompression mode                         : Lossy\r\nStream size                              : 82.0 MiB (12%)\r\nAlignment                                : Aligned on interleaves\r\nInterleave, duration                     : 24 ms (0.72 video frame)\r\nInterleave, preload duration             : 24 ms","torrent":{"xt":"urn:btih:37e79fe2f3c42a1978585631f31d2bf17136f5c3","amp;dn":"Homework+%281982%29+Joan+Collins+DVDRip+XviD-pong","amp;tr":["udp%3A%2F%2Ftracker.leechers-paradise.org%3A6969","udp%3A%2F%2Fzer0day.ch%3A1337","udp%3A%2F%2Fopen.demonii.com%3A1337","udp%3A%2F%2Ftracker.coppersurfer.tk%3A6969","udp%3A%2F%2Fexodus.desync.com%3A6969"],"infoHash":"37e79fe2f3c42a1978585631f31d2bf17136f5c3","infoHashBuffer":{"type":"Buffer","data":[55,231,159,226,243,196,42,25,120,88,86,49,243,29,43,241,113,54,245,195]},"announce":[],"urlList":[]}}